<?xml version="1.0" encoding="UTF-8" standalone="no"?>
<!-- Created with Inkscape (http://www.inkscape.org/) -->

<svg
   xmlns:dc="http://purl.org/dc/elements/1.1/"
   xmlns:cc="http://creativecommons.org/ns#"
   xmlns:rdf="http://www.w3.org/1999/02/22-rdf-syntax-ns#"
   xmlns:svg="http://www.w3.org/2000/svg"
   xmlns="http://www.w3.org/2000/svg"
   xmlns:sodipodi="http://sodipodi.sourceforge.net/DTD/sodipodi-0.dtd"
   xmlns:inkscape="http://www.inkscape.org/namespaces/inkscape"
   id="svg2"
   version="1.1"
   inkscape:version="0.91 r13725"
   xml:space="preserve"
   width="600"
   height="160"
   viewBox="0 0 600 160"
   sodipodi:docname="cf2019.svg"><metadata
     id="metadata8"><rdf:RDF><cc:Work
         rdf:about=""><dc:format>image/svg+xml</dc:format><dc:type
           rdf:resource="http://purl.org/dc/dcmitype/StillImage" /><dc:title></dc:title></cc:Work></rdf:RDF></metadata><defs
     id="defs6"><clipPath
       clipPathUnits="userSpaceOnUse"
       id="clipPath16"><path
         d="m 0,283.465 595.276,0 L 595.276,0 0,0 0,283.465 Z"
         id="path18"
         inkscape:connector-curvature="0" /></clipPath></defs><sodipodi:namedview
     pagecolor="#ffffff"
     bordercolor="#666666"
     borderopacity="1"
     objecttolerance="10"
     gridtolerance="10"
     guidetolerance="10"
     inkscape:pageopacity="0"
     inkscape:pageshadow="2"
     inkscape:window-width="1280"
     inkscape:window-height="772"
     id="namedview4"
     showgrid="false"
     inkscape:zoom="0.78113923"
     inkscape:cx="371.29748"
     inkscape:cy="178.79602"
     inkscape:window-x="0"
     inkscape:window-y="0"
     inkscape:window-maximized="1"
     inkscape:current-layer="g14" /><g
     id="g10"
     inkscape:groupmode="layer"
     inkscape:label="Pirati-CF_logo"
     transform="matrix(1.25,0,0,-1.25,0,160.00001)"><g
       id="g12"
       transform="matrix(1.0688295,0,0,1.0688295,-5.0309479,-5.5948336)"><g
         id="g14"
         clip-path="url(#clipPath16)"><g
           id="g4332"
           transform="matrix(1,0,0,0.99059896,-68.38593,-75.28668)"><g
             inkscape:export-ydpi="90.268326"
             inkscape:export-xdpi="90.268326"
             inkscape:export-filename="/home/vencax/prg/pirati/cf.pirati.cz/images/cflogo.png"
             transform="translate(100.2494,178.2037)"
             id="g20"><path
               inkscape:connector-curvature="0"
               id="path22"
               style="fill:#231f20;fill-opacity:1;fill-rule:evenodd;stroke:none"
               d="m 0,0 c -1.367,-0.492 -3.163,-0.832 -3.713,-2.066 l 3.811,0.284 -0.029,-36.586 c -0.287,-2.044 -1.267,-3.261 -1.355,-6.13 -0.106,-3.415 1.117,-9.98 2.637,-12.254 -0.394,6.694 -1.171,9.49 2.593,14.47 2.483,3.283 7.251,4.58 12.743,5.675 7.872,1.569 17.684,2.635 24.234,7.468 5.259,3.88 5.42,11.174 3.193,17.236 C 38.48,3.438 18.113,3.542 3.992,1.003 L 3.746,6.918 0.308,6.952 C 0.277,5.786 0.576,0.909 0,0 m 3.949,-2.523 c 7.799,-1.439 13.34,-7.468 12.817,-16.073 -0.279,-4.57 -2.024,-7.956 -4.361,-10.023 -1.829,-1.617 -5.862,-4.618 -8.457,-5.828 l 10e-4,31.924 z" /></g><g
             inkscape:export-ydpi="90.268326"
             inkscape:export-xdpi="90.268326"
             inkscape:export-filename="/home/vencax/prg/pirati/cf.pirati.cz/images/cflogo.png"
             transform="translate(230.2299,177.338)"
             id="g24"><path
               inkscape:connector-curvature="0"
               id="path26"
               style="fill:#231f20;fill-opacity:1;fill-rule:nonzero;stroke:none"
               d="m 0,0 0,-3.936 c 0,-2.397 -0.568,-4.239 -1.703,-5.522 -1.137,-1.284 -2.813,-1.925 -5.029,-1.925 -2.217,0 -3.894,0.641 -5.029,1.925 -1.136,1.283 -1.704,3.125 -1.704,5.522 l 0,15.404 c 0,2.398 0.568,4.239 1.704,5.523 1.135,1.283 2.812,1.926 5.029,1.926 2.216,0 3.892,-0.643 5.029,-1.926 C -0.568,15.707 0,13.866 0,11.468 l 0,-2.877 -4.27,0 0,3.174 c 0,1.071 -0.211,1.826 -0.635,2.263 -0.425,0.438 -0.992,0.657 -1.704,0.657 -0.712,0 -1.28,-0.219 -1.704,-0.657 -0.424,-0.437 -0.636,-1.192 -0.636,-2.263 l 0,-15.997 c 0,-1.072 0.212,-1.819 0.636,-2.243 0.424,-0.423 0.992,-0.634 1.704,-0.634 0.712,0 1.279,0.211 1.704,0.634 0.424,0.424 0.635,1.171 0.635,2.243 L -4.27,0 0,0 Z" /></g><g
             inkscape:export-ydpi="90.268326"
             inkscape:export-xdpi="90.268326"
             inkscape:export-filename="/home/vencax/prg/pirati/cf.pirati.cz/images/cflogo.png"
             transform="translate(237.4965,183.4318)"
             id="g28"><path
               inkscape:connector-curvature="0"
               id="path30"
               style="fill:#231f20;fill-opacity:1;fill-rule:nonzero;stroke:none"
               d="m 0,0 6.198,0 0,-4.231 -6.198,0 0,-8.676 7.799,0 0,-4.232 -12.316,0 0,29.623 12.316,0 0,-4.232 L 0,8.252 0,0 Z" /></g><g
             inkscape:export-ydpi="90.268326"
             inkscape:export-xdpi="90.268326"
             inkscape:export-filename="/home/vencax/prg/pirati/cf.pirati.cz/images/cflogo.png"
             transform="translate(248.0863,195.9156)"
             id="g32"><path
               inkscape:connector-curvature="0"
               id="path34"
               style="fill:#231f20;fill-opacity:1;fill-rule:nonzero;stroke:none"
               d="m 0,0 4.517,0 0,-25.391 7.429,0 0,-4.232 L 0,-29.623 0,0 Z" /></g><g
             inkscape:export-ydpi="90.268326"
             inkscape:export-xdpi="90.268326"
             inkscape:export-filename="/home/vencax/prg/pirati/cf.pirati.cz/images/cflogo.png"
             transform="translate(266.1488,173.1061)"
             id="g36"><path
               inkscape:connector-curvature="0"
               id="path38"
               style="fill:#231f20;fill-opacity:1;fill-rule:nonzero;stroke:none"
               d="M 0,0 C 0,-1.072 0.212,-1.827 0.637,-2.264 1.061,-2.702 1.628,-2.92 2.34,-2.92 c 0.712,0 1.279,0.218 1.704,0.656 C 4.468,-1.827 4.68,-1.072 4.68,0 l 0,15.997 c 0,1.071 -0.212,1.826 -0.636,2.263 C 3.619,18.698 3.052,18.917 2.34,18.917 1.628,18.917 1.061,18.698 0.637,18.26 0.212,17.823 0,17.068 0,15.997 L 0,0 Z m -4.516,15.7 c 0,2.398 0.588,4.238 1.766,5.523 1.176,1.283 2.873,1.925 5.09,1.925 2.217,0 3.914,-0.642 5.091,-1.925 1.175,-1.285 1.764,-3.125 1.764,-5.523 l 0,-15.404 C 9.195,-2.102 8.606,-3.943 7.431,-5.226 6.254,-6.51 4.557,-7.151 2.34,-7.151 c -2.217,0 -3.914,0.641 -5.09,1.925 -1.178,1.283 -1.766,3.124 -1.766,5.522 l 0,15.404 z" /></g><g
             inkscape:export-ydpi="90.268326"
             inkscape:export-xdpi="90.268326"
             inkscape:export-filename="/home/vencax/prg/pirati/cf.pirati.cz/images/cflogo.png"
             transform="translate(277.684,188.8063)"
             id="g40"><path
               inkscape:connector-curvature="0"
               id="path42"
               style="fill:#231f20;fill-opacity:1;fill-rule:nonzero;stroke:none"
               d="m 0,0 c 0,2.397 0.554,4.238 1.662,5.522 1.109,1.284 2.772,1.926 4.988,1.926 2.217,0 3.879,-0.642 4.988,-1.926 C 12.746,4.238 13.301,2.397 13.301,0 l 0,-0.931 -4.27,0 0,1.227 C 9.031,1.368 8.832,2.123 8.437,2.56 8.039,2.998 7.484,3.216 6.773,3.216 6.062,3.216 5.507,2.998 5.111,2.56 4.714,2.123 4.516,1.368 4.516,0.296 c 0,-1.015 0.218,-1.911 0.657,-2.687 0.437,-0.776 0.984,-1.509 1.641,-2.2 0.658,-0.692 1.362,-1.383 2.115,-2.074 0.752,-0.692 1.457,-1.446 2.114,-2.264 0.656,-0.819 1.204,-1.75 1.642,-2.793 0.437,-1.044 0.657,-2.271 0.657,-3.682 0,-2.398 -0.569,-4.239 -1.704,-5.522 -1.136,-1.284 -2.812,-1.926 -5.029,-1.926 -2.216,0 -3.893,0.642 -5.029,1.926 -1.136,1.283 -1.703,3.124 -1.703,5.522 l 0,1.82 4.269,0 0,-2.116 c 0,-1.072 0.211,-1.82 0.636,-2.243 0.424,-0.423 0.992,-0.635 1.704,-0.635 0.711,0 1.279,0.212 1.703,0.635 0.424,0.423 0.637,1.171 0.637,2.243 0,1.015 -0.22,1.911 -0.657,2.687 -0.438,0.776 -0.985,1.509 -1.642,2.201 C 5.87,-10.121 5.165,-9.43 4.413,-8.739 3.66,-8.048 2.956,-7.293 2.299,-6.475 1.642,-5.657 1.094,-4.726 0.657,-3.682 0.219,-2.638 0,-1.411 0,0" /></g><g
             inkscape:export-ydpi="90.268326"
             inkscape:export-xdpi="90.268326"
             inkscape:export-filename="/home/vencax/prg/pirati/cf.pirati.cz/images/cflogo.png"
             transform="translate(292.2982,195.9156)"
             id="g44"><path
               inkscape:connector-curvature="0"
               id="path46"
               style="fill:#231f20;fill-opacity:1;fill-rule:nonzero;stroke:none"
               d="m 0,0 13.958,0 0,-4.232 -4.721,0 0,-25.391 -4.515,0 0,25.391 L 0,-4.232 0,0 Z" /></g><g
             inkscape:export-ydpi="90.268326"
             inkscape:export-xdpi="90.268326"
             inkscape:export-filename="/home/vencax/prg/pirati/cf.pirati.cz/images/cflogo.png"
             transform="translate(310.976,175.6876)"
             id="g48"><path
               inkscape:connector-curvature="0"
               id="path50"
               style="fill:#231f20;fill-opacity:1;fill-rule:nonzero;stroke:none"
               d="M 0,0 4.352,0 2.176,14.98 0,0 Z m 7.226,26.491 -4.188,-4.697 -3.038,0 2.792,4.697 4.434,0 z m 3.079,-35.886 -4.558,0 -0.779,5.375 -5.542,0 -0.78,-5.375 -4.147,0 4.599,29.623 6.608,0 4.599,-29.623 z" /></g><g
             inkscape:export-ydpi="90.268326"
             inkscape:export-xdpi="90.268326"
             inkscape:export-filename="/home/vencax/prg/pirati/cf.pirati.cz/images/cflogo.png"
             transform="translate(322.0599,195.9156)"
             id="g52"><path
               inkscape:connector-curvature="0"
               id="path54"
               style="fill:#231f20;fill-opacity:1;fill-rule:nonzero;stroke:none"
               d="m 0,0 13.958,0 0,-4.232 -4.721,0 0,-25.391 -4.515,0 0,25.391 L 0,-4.232 0,0 Z" /></g><g
             inkscape:export-ydpi="90.268326"
             inkscape:export-xdpi="90.268326"
             inkscape:export-filename="/home/vencax/prg/pirati/cf.pirati.cz/images/cflogo.png"
             transform="translate(342.0111,187.7482)"
             id="g56"><path
               inkscape:connector-curvature="0"
               id="path58"
               style="fill:#231f20;fill-opacity:1;fill-rule:nonzero;stroke:none"
               d="m 0,0 0,-21.455 -4.064,0 0,29.622 5.666,0 4.638,-17.73 0,17.73 4.023,0 0,-29.622 -4.639,0 L 0,0 Z" /></g><path
             inkscape:export-ydpi="90.268326"
             inkscape:export-xdpi="90.268326"
             inkscape:export-filename="/home/vencax/prg/pirati/cf.pirati.cz/images/cflogo.png"
             inkscape:connector-curvature="0"
             id="path60"
             style="fill:#231f20;fill-opacity:1;fill-rule:nonzero;stroke:none"
             d="m 355.516,195.916 4.517,0 0,-29.623 -4.517,0 0,29.623 z m 7.103,6.263 -4.188,-4.697 -3.038,0 2.792,4.697 4.434,0 z" /><g
             inkscape:export-ydpi="90.268326"
             inkscape:export-xdpi="90.268326"
             inkscape:export-filename="/home/vencax/prg/pirati/cf.pirati.cz/images/cflogo.png"
             transform="translate(374.1947,182.755)"
             id="g62"><path
               inkscape:connector-curvature="0"
               id="path64"
               style="fill:#231f20;fill-opacity:1;fill-rule:nonzero;stroke:none"
               d="m 0,0 5.829,0 0,-4.232 -5.829,0 0,-12.23 -4.517,0 0,29.623 11.947,0 0,-4.232 L 0,8.929 0,0 Z" /></g><g
             inkscape:export-ydpi="90.268326"
             inkscape:export-xdpi="90.268326"
             inkscape:export-filename="/home/vencax/prg/pirati/cf.pirati.cz/images/cflogo.png"
             transform="translate(387.9457,173.1061)"
             id="g66"><path
               inkscape:connector-curvature="0"
               id="path68"
               style="fill:#231f20;fill-opacity:1;fill-rule:nonzero;stroke:none"
               d="M 0,0 C 0,-1.072 0.212,-1.827 0.637,-2.264 1.061,-2.702 1.628,-2.92 2.34,-2.92 c 0.712,0 1.279,0.218 1.704,0.656 C 4.468,-1.827 4.68,-1.072 4.68,0 l 0,15.997 c 0,1.071 -0.212,1.826 -0.636,2.263 C 3.619,18.698 3.052,18.917 2.34,18.917 1.628,18.917 1.061,18.698 0.637,18.26 0.212,17.823 0,17.068 0,15.997 L 0,0 Z m 7.185,29.073 -4.188,-4.698 -3.038,0 2.792,4.698 4.434,0 z M -4.516,15.7 c 0,2.398 0.588,4.238 1.766,5.523 1.176,1.283 2.873,1.925 5.09,1.925 2.217,0 3.914,-0.642 5.091,-1.925 1.175,-1.285 1.764,-3.125 1.764,-5.523 l 0,-15.404 C 9.195,-2.102 8.606,-3.943 7.431,-5.226 6.254,-6.51 4.557,-7.151 2.34,-7.151 c -2.217,0 -3.914,0.641 -5.09,1.925 -1.178,1.283 -1.766,3.124 -1.766,5.522 l 0,15.404 z" /></g><g
             inkscape:export-ydpi="90.268326"
             inkscape:export-xdpi="90.268326"
             inkscape:export-filename="/home/vencax/prg/pirati/cf.pirati.cz/images/cflogo.png"
             transform="translate(404.5726,191.6837)"
             id="g70"><path
               inkscape:connector-curvature="0"
               id="path72"
               style="fill:#231f20;fill-opacity:1;fill-rule:nonzero;stroke:none"
               d="m 0,0 0,-9.098 1.765,0 c 0.847,0 1.511,0.225 1.991,0.677 0.478,0.451 0.719,1.27 0.719,2.454 l 0,2.92 c 0,1.072 -0.186,1.848 -0.555,2.328 C 3.551,-0.24 2.969,0 2.175,0 L 0,0 Z m 4.926,-25.391 c -0.056,0.198 -0.11,0.381 -0.164,0.551 -0.056,0.169 -0.103,0.381 -0.144,0.634 -0.041,0.254 -0.069,0.578 -0.082,0.974 -0.015,0.394 -0.02,0.888 -0.02,1.481 l 0,4.655 c 0,1.382 -0.234,2.355 -0.699,2.92 -0.465,0.564 -1.217,0.846 -2.257,0.846 l -1.56,0 0,-12.061 -4.517,0 0,29.623 6.816,0 C 4.651,4.232 6.355,3.667 7.409,2.54 8.463,1.411 8.99,-0.296 8.99,-2.581 l 0,-2.328 c 0,-3.047 -0.985,-5.05 -2.956,-6.009 1.15,-0.48 1.936,-1.263 2.361,-2.349 0.423,-1.086 0.636,-2.405 0.636,-3.956 l 0,-4.57 c 0,-0.734 0.027,-1.376 0.082,-1.926 0.055,-0.55 0.191,-1.108 0.41,-1.672 l -4.597,0 z" /></g><g
             inkscape:export-ydpi="90.268326"
             inkscape:export-xdpi="90.268326"
             inkscape:export-filename="/home/vencax/prg/pirati/cf.pirati.cz/images/cflogo.png"
             transform="translate(420.8685,195.9156)"
             id="g74"><path
               inkscape:connector-curvature="0"
               id="path76"
               style="fill:#231f20;fill-opacity:1;fill-rule:nonzero;stroke:none"
               d="m 0,0 0,-22.852 c 0,-1.072 0.212,-1.819 0.637,-2.243 0.424,-0.423 0.991,-0.634 1.703,-0.634 0.712,0 1.279,0.211 1.704,0.634 0.424,0.424 0.637,1.171 0.637,2.243 l 0,22.852 4.268,0 0,-22.556 c 0,-2.398 -0.568,-4.238 -1.703,-5.522 -1.136,-1.284 -2.812,-1.925 -5.029,-1.925 -2.217,0 -3.894,0.641 -5.029,1.925 -1.135,1.284 -1.704,3.124 -1.704,5.522 L -4.516,0 0,0 Z" /></g><g
             inkscape:export-ydpi="90.268326"
             inkscape:export-xdpi="90.268326"
             inkscape:export-filename="/home/vencax/prg/pirati/cf.pirati.cz/images/cflogo.png"
             transform="translate(442.4623,174.8834)"
             id="g78"><path
               inkscape:connector-curvature="0"
               id="path80"
               style="fill:#231f20;fill-opacity:1;fill-rule:nonzero;stroke:none"
               d="m 0,0 3.079,21.032 6.28,0 0,-29.622 -4.268,0 0,21.243 -3.12,-21.243 -4.27,0 -3.366,20.947 0,-20.947 -3.941,0 0,29.622 6.281,0 L 0,0 Z" /></g><g
             inkscape:export-ydpi="90.268326"
             inkscape:export-xdpi="90.268326"
             inkscape:export-filename="/home/vencax/prg/pirati/cf.pirati.cz/images/cflogo.png"
             transform="translate(221.6508,161.1779)"
             id="g82"><path
               inkscape:connector-curvature="0"
               id="path84"
               style="fill:#231f20;fill-opacity:1;fill-rule:nonzero;stroke:none"
               d="M 0,0 1.806,-2.37 3.653,0 7.512,0 3.858,-4.697 l -4.064,0 L -3.859,0 0,0 Z m 8.579,-24.841 0,-3.935 c 0,-2.399 -0.568,-4.24 -1.703,-5.523 -1.137,-1.284 -2.813,-1.926 -5.029,-1.926 -2.217,0 -3.894,0.642 -5.029,1.926 -1.136,1.283 -1.704,3.124 -1.704,5.523 l 0,15.403 c 0,2.398 0.568,4.239 1.704,5.523 1.135,1.284 2.812,1.926 5.029,1.926 2.216,0 3.892,-0.642 5.029,-1.926 1.135,-1.284 1.703,-3.125 1.703,-5.523 l 0,-2.877 -4.269,0 0,3.174 c 0,1.072 -0.212,1.826 -0.636,2.263 -0.425,0.438 -0.992,0.657 -1.704,0.657 -0.712,0 -1.28,-0.219 -1.703,-0.657 -0.425,-0.437 -0.637,-1.191 -0.637,-2.263 l 0,-15.996 c 0,-1.074 0.212,-1.821 0.637,-2.243 0.423,-0.423 0.991,-0.635 1.703,-0.635 0.712,0 1.279,0.212 1.704,0.635 0.424,0.422 0.636,1.169 0.636,2.243 l 0,4.231 4.269,0 z" /></g><g
             inkscape:export-ydpi="90.268326"
             inkscape:export-xdpi="90.268326"
             inkscape:export-filename="/home/vencax/prg/pirati/cf.pirati.cz/images/cflogo.png"
             transform="translate(237.4965,142.4308)"
             id="g86"><path
               inkscape:connector-curvature="0"
               id="path88"
               style="fill:#231f20;fill-opacity:1;fill-rule:nonzero;stroke:none"
               d="m 0,0 6.198,0 0,-4.231 -6.198,0 0,-8.676 7.799,0 0,-4.232 -12.316,0 0,29.623 12.316,0 0,-4.232 L 0,8.252 0,0 Z" /></g><g
             inkscape:export-ydpi="90.268326"
             inkscape:export-xdpi="90.268326"
             inkscape:export-filename="/home/vencax/prg/pirati/cf.pirati.cz/images/cflogo.png"
             transform="translate(247.5121,147.8053)"
             id="g90"><path
               inkscape:connector-curvature="0"
               id="path92"
               style="fill:#231f20;fill-opacity:1;fill-rule:nonzero;stroke:none"
               d="m 0,0 c 0,2.397 0.554,4.238 1.662,5.522 1.109,1.284 2.772,1.926 4.988,1.926 2.217,0 3.879,-0.642 4.988,-1.926 C 12.746,4.238 13.301,2.397 13.301,0 l 0,-0.931 -4.27,0 0,1.227 C 9.031,1.368 8.832,2.123 8.437,2.56 8.039,2.998 7.484,3.216 6.773,3.216 6.062,3.216 5.507,2.998 5.111,2.56 4.714,2.123 4.516,1.368 4.516,0.296 c 0,-1.015 0.218,-1.911 0.657,-2.687 0.437,-0.776 0.984,-1.509 1.641,-2.2 0.658,-0.692 1.362,-1.383 2.115,-2.074 0.752,-0.692 1.457,-1.446 2.114,-2.264 0.656,-0.819 1.204,-1.749 1.642,-2.793 0.437,-1.044 0.657,-2.272 0.657,-3.682 0,-2.398 -0.569,-4.239 -1.704,-5.522 -1.136,-1.284 -2.812,-1.926 -5.029,-1.926 -2.216,0 -3.893,0.642 -5.029,1.926 -1.136,1.283 -1.703,3.124 -1.703,5.522 l 0,1.82 4.269,0 0,-2.116 c 0,-1.073 0.211,-1.82 0.636,-2.243 0.424,-0.423 0.992,-0.635 1.704,-0.635 0.711,0 1.279,0.212 1.703,0.635 0.424,0.423 0.637,1.17 0.637,2.243 0,1.016 -0.22,1.911 -0.657,2.687 -0.438,0.776 -0.985,1.51 -1.642,2.201 C 5.87,-10.122 5.165,-9.43 4.413,-8.739 3.66,-8.048 2.956,-7.293 2.299,-6.475 1.642,-5.657 1.094,-4.726 0.657,-3.682 0.219,-2.638 0,-1.411 0,0" /></g><g
             inkscape:export-ydpi="90.268326"
             inkscape:export-xdpi="90.268326"
             inkscape:export-filename="/home/vencax/prg/pirati/cf.pirati.cz/images/cflogo.png"
             transform="translate(269.351,137.0988)"
             id="g94"><path
               inkscape:connector-curvature="0"
               id="path96"
               style="fill:#231f20;fill-opacity:1;fill-rule:nonzero;stroke:none"
               d="m 0,0 -1.396,-2.708 0,-9.099 -4.516,0 0,29.623 4.516,0 0,-12.907 5.912,12.907 4.515,0 -6.281,-13.203 6.281,-16.42 -4.638,0 L 0,0 Z" /></g><g
             inkscape:export-ydpi="90.268326"
             inkscape:export-xdpi="90.268326"
             inkscape:export-filename="/home/vencax/prg/pirati/cf.pirati.cz/images/cflogo.png"
             transform="translate(291.3949,161.1779)"
             id="g98"><path
               inkscape:connector-curvature="0"
               id="path100"
               style="fill:#231f20;fill-opacity:1;fill-rule:nonzero;stroke:none"
               d="m 0,0 -4.187,-4.697 -3.038,0 L -4.434,0 0,0 Z m -6.444,-18.747 6.198,0 0,-4.232 -6.198,0 0,-8.675 7.798,0 0,-4.232 -12.315,0 0,29.623 12.315,0 0,-4.232 -7.798,0 0,-8.252 z" /></g><g
             inkscape:export-ydpi="90.268326"
             inkscape:export-xdpi="90.268326"
             inkscape:export-filename="/home/vencax/prg/pirati/cf.pirati.cz/images/cflogo.png"
             transform="translate(306.4203,150.6827)"
             id="g102"><path
               inkscape:connector-curvature="0"
               id="path104"
               style="fill:#231f20;fill-opacity:1;fill-rule:nonzero;stroke:none"
               d="m 0,0 0,-10.029 2.134,0 c 0.712,0 1.259,0.197 1.642,0.592 0.383,0.395 0.575,1.128 0.575,2.201 l 0,4.443 c 0,1.072 -0.192,1.805 -0.575,2.201 C 3.393,-0.197 2.846,0 2.134,0 L 0,0 Z m 2.134,4.232 c 2.271,0 3.962,-0.621 5.07,-1.862 1.109,-1.242 1.662,-3.061 1.662,-5.459 l 0,-3.851 c 0,-2.398 -0.553,-4.218 -1.662,-5.459 -1.108,-1.242 -2.799,-1.862 -5.07,-1.862 l -2.134,0 0,-11.13 -4.517,0 0,29.623 6.651,0 z" /></g><path
             inkscape:export-ydpi="90.268326"
             inkscape:export-xdpi="90.268326"
             inkscape:export-filename="/home/vencax/prg/pirati/cf.pirati.cz/images/cflogo.png"
             inkscape:connector-curvature="0"
             id="path106"
             style="fill:#231f20;fill-opacity:1;fill-rule:nonzero;stroke:none"
             d="m 317.585,154.915 4.517,0 0,-29.623 -4.517,0 0,29.623 z" /><g
             inkscape:export-ydpi="90.268326"
             inkscape:export-xdpi="90.268326"
             inkscape:export-filename="/home/vencax/prg/pirati/cf.pirati.cz/images/cflogo.png"
             transform="translate(329.9008,150.6827)"
             id="g108"><path
               inkscape:connector-curvature="0"
               id="path110"
               style="fill:#231f20;fill-opacity:1;fill-rule:nonzero;stroke:none"
               d="m 0,0 0,-9.098 1.765,0 c 0.847,0 1.511,0.225 1.991,0.677 0.478,0.451 0.719,1.27 0.719,2.454 l 0,2.92 c 0,1.072 -0.186,1.848 -0.555,2.328 C 3.551,-0.24 2.969,0 2.175,0 L 0,0 Z m 4.926,-25.391 c -0.056,0.198 -0.11,0.381 -0.164,0.55 -0.056,0.17 -0.103,0.381 -0.144,0.635 -0.041,0.254 -0.069,0.578 -0.082,0.974 -0.015,0.394 -0.02,0.888 -0.02,1.481 l 0,4.654 c 0,1.383 -0.234,2.356 -0.699,2.92 -0.465,0.565 -1.217,0.847 -2.257,0.847 l -1.56,0 0,-12.061 -4.517,0 0,29.623 6.816,0 C 4.651,4.232 6.355,3.667 7.409,2.54 8.463,1.411 8.99,-0.296 8.99,-2.581 l 0,-2.328 c 0,-3.047 -0.985,-5.05 -2.956,-6.009 1.15,-0.48 1.936,-1.263 2.361,-2.349 0.423,-1.086 0.636,-2.405 0.636,-3.957 l 0,-4.57 c 0,-0.733 0.027,-1.375 0.082,-1.925 0.055,-0.551 0.191,-1.107 0.41,-1.672 l -4.597,0 z" /></g><g
             inkscape:export-ydpi="90.268326"
             inkscape:export-xdpi="90.268326"
             inkscape:export-filename="/home/vencax/prg/pirati/cf.pirati.cz/images/cflogo.png"
             transform="translate(346.1976,134.6866)"
             id="g112"><path
               inkscape:connector-curvature="0"
               id="path114"
               style="fill:#231f20;fill-opacity:1;fill-rule:nonzero;stroke:none"
               d="M 0,0 4.352,0 2.176,14.98 0,0 Z m 7.226,26.491 -4.188,-4.697 -3.038,0 2.792,4.697 4.434,0 z m 3.079,-35.886 -4.558,0 -0.779,5.374 -5.542,0 -0.78,-5.374 -4.147,0 4.599,29.623 6.608,0 4.599,-29.623 z" /></g><g
             inkscape:export-ydpi="90.268326"
             inkscape:export-xdpi="90.268326"
             inkscape:export-filename="/home/vencax/prg/pirati/cf.pirati.cz/images/cflogo.png"
             transform="translate(357.2806,154.9147)"
             id="g116"><path
               inkscape:connector-curvature="0"
               id="path118"
               style="fill:#231f20;fill-opacity:1;fill-rule:nonzero;stroke:none"
               d="m 0,0 13.958,0 0,-4.232 -4.721,0 0,-25.391 -4.515,0 0,25.391 L 0,-4.232 0,0 Z" /></g><g
             inkscape:export-ydpi="90.268326"
             inkscape:export-xdpi="90.268326"
             inkscape:export-filename="/home/vencax/prg/pirati/cf.pirati.cz/images/cflogo.png"
             transform="translate(372.6342,147.8053)"
             id="g120"><path
               inkscape:connector-curvature="0"
               id="path122"
               style="fill:#231f20;fill-opacity:1;fill-rule:nonzero;stroke:none"
               d="m 0,0 c 0,2.397 0.554,4.238 1.662,5.522 1.109,1.284 2.772,1.926 4.988,1.926 2.217,0 3.879,-0.642 4.988,-1.926 C 12.746,4.238 13.301,2.397 13.301,0 l 0,-0.931 -4.27,0 0,1.227 C 9.031,1.368 8.832,2.123 8.437,2.56 8.039,2.998 7.484,3.216 6.773,3.216 6.062,3.216 5.507,2.998 5.111,2.56 4.714,2.123 4.516,1.368 4.516,0.296 c 0,-1.015 0.218,-1.911 0.657,-2.687 0.437,-0.776 0.984,-1.509 1.641,-2.2 0.658,-0.692 1.362,-1.383 2.115,-2.074 0.752,-0.692 1.457,-1.446 2.114,-2.264 0.656,-0.819 1.204,-1.749 1.642,-2.793 0.437,-1.044 0.657,-2.272 0.657,-3.682 0,-2.398 -0.569,-4.239 -1.704,-5.522 -1.136,-1.284 -2.812,-1.926 -5.029,-1.926 -2.216,0 -3.893,0.642 -5.029,1.926 -1.136,1.283 -1.703,3.124 -1.703,5.522 l 0,1.82 4.269,0 0,-2.116 c 0,-1.073 0.211,-1.82 0.636,-2.243 0.424,-0.423 0.992,-0.635 1.704,-0.635 0.711,0 1.279,0.212 1.703,0.635 0.424,0.423 0.637,1.17 0.637,2.243 0,1.016 -0.22,1.911 -0.657,2.687 -0.438,0.776 -0.985,1.51 -1.642,2.201 C 5.87,-10.122 5.165,-9.43 4.413,-8.739 3.66,-8.048 2.956,-7.293 2.299,-6.475 1.642,-5.657 1.094,-4.726 0.657,-3.682 0.219,-2.638 0,-1.411 0,0" /></g><g
             inkscape:export-ydpi="90.268326"
             inkscape:export-xdpi="90.268326"
             inkscape:export-filename="/home/vencax/prg/pirati/cf.pirati.cz/images/cflogo.png"
             transform="translate(394.473,137.0988)"
             id="g124"><path
               inkscape:connector-curvature="0"
               id="path126"
               style="fill:#231f20;fill-opacity:1;fill-rule:nonzero;stroke:none"
               d="m 0,0 -1.396,-2.708 0,-9.099 -4.516,0 0,29.623 4.516,0 0,-12.907 5.912,12.907 4.515,0 -6.281,-13.203 6.281,-16.42 -4.638,0 L 0,0 Z" /></g><g
             inkscape:export-ydpi="90.268326"
             inkscape:export-xdpi="90.268326"
             inkscape:export-filename="/home/vencax/prg/pirati/cf.pirati.cz/images/cflogo.png"
             transform="translate(416.517,161.1779)"
             id="g128"><path
               inkscape:connector-curvature="0"
               id="path130"
               style="fill:#231f20;fill-opacity:1;fill-rule:nonzero;stroke:none"
               d="m 0,0 -4.187,-4.697 -3.038,0 L -4.434,0 0,0 Z m -6.444,-18.747 6.198,0 0,-4.232 -6.198,0 0,-8.675 7.798,0 0,-4.232 -12.315,0 0,29.623 12.315,0 0,-4.232 -7.798,0 0,-8.252 z" /></g><g
             inkscape:export-ydpi="90.268326"
             inkscape:export-xdpi="90.268326"
             inkscape:export-filename="/home/vencax/prg/pirati/cf.pirati.cz/images/cflogo.png"
             transform="translate(426.4515,147.8053)"
             id="g132"><path
               inkscape:connector-curvature="0"
               id="path134"
               style="fill:#231f20;fill-opacity:1;fill-rule:nonzero;stroke:none"
               d="m 0,0 c 0,2.397 0.554,4.238 1.662,5.522 1.109,1.284 2.772,1.926 4.988,1.926 2.217,0 3.879,-0.642 4.988,-1.926 C 12.746,4.238 13.301,2.397 13.301,0 l 0,-0.931 -4.27,0 0,1.227 C 9.031,1.368 8.832,2.123 8.437,2.56 8.039,2.998 7.484,3.216 6.773,3.216 6.062,3.216 5.507,2.998 5.111,2.56 4.714,2.123 4.516,1.368 4.516,0.296 c 0,-1.015 0.218,-1.911 0.657,-2.687 0.437,-0.776 0.984,-1.509 1.641,-2.2 0.658,-0.692 1.362,-1.383 2.115,-2.074 0.752,-0.692 1.457,-1.446 2.114,-2.264 0.656,-0.819 1.204,-1.749 1.642,-2.793 0.437,-1.044 0.657,-2.272 0.657,-3.682 0,-2.398 -0.569,-4.239 -1.704,-5.522 -1.136,-1.284 -2.812,-1.926 -5.029,-1.926 -2.216,0 -3.893,0.642 -5.029,1.926 -1.136,1.283 -1.703,3.124 -1.703,5.522 l 0,1.82 4.269,0 0,-2.116 c 0,-1.073 0.211,-1.82 0.636,-2.243 0.424,-0.423 0.992,-0.635 1.704,-0.635 0.711,0 1.279,0.212 1.703,0.635 0.424,0.423 0.637,1.17 0.637,2.243 0,1.016 -0.22,1.911 -0.657,2.687 -0.438,0.776 -0.985,1.51 -1.642,2.201 C 5.87,-10.122 5.165,-9.43 4.413,-8.739 3.66,-8.048 2.956,-7.293 2.299,-6.475 1.642,-5.657 1.094,-4.726 0.657,-3.682 0.219,-2.638 0,-1.411 0,0" /></g><g
             inkscape:export-ydpi="90.268326"
             inkscape:export-xdpi="90.268326"
             inkscape:export-filename="/home/vencax/prg/pirati/cf.pirati.cz/images/cflogo.png"
             transform="translate(441.0658,154.9147)"
             id="g136"><path
               inkscape:connector-curvature="0"
               id="path138"
               style="fill:#231f20;fill-opacity:1;fill-rule:nonzero;stroke:none"
               d="m 0,0 13.958,0 0,-4.232 -4.721,0 0,-25.391 -4.515,0 0,25.391 L 0,-4.232 0,0 Z" /></g><g
             inkscape:export-ydpi="90.268326"
             inkscape:export-xdpi="90.268326"
             inkscape:export-filename="/home/vencax/prg/pirati/cf.pirati.cz/images/cflogo.png"
             transform="translate(461.5092,150.6827)"
             id="g140"><path
               inkscape:connector-curvature="0"
               id="path142"
               style="fill:#231f20;fill-opacity:1;fill-rule:nonzero;stroke:none"
               d="m 0,0 0,-9.098 1.765,0 c 0.847,0 1.511,0.225 1.991,0.677 0.478,0.451 0.719,1.27 0.719,2.454 l 0,2.92 c 0,1.072 -0.186,1.848 -0.555,2.328 C 3.551,-0.24 2.969,0 2.175,0 L 0,0 Z m 4.926,-25.391 c -0.056,0.198 -0.11,0.381 -0.164,0.55 -0.056,0.17 -0.103,0.381 -0.144,0.635 -0.041,0.254 -0.069,0.578 -0.082,0.974 -0.015,0.394 -0.02,0.888 -0.02,1.481 l 0,4.654 c 0,1.383 -0.234,2.356 -0.699,2.92 -0.465,0.565 -1.217,0.847 -2.257,0.847 l -1.56,0 0,-12.061 -4.517,0 0,29.623 6.816,0 C 4.651,4.232 6.355,3.667 7.409,2.54 8.463,1.411 8.99,-0.296 8.99,-2.581 l 0,-2.328 c 0,-3.047 -0.985,-5.05 -2.956,-6.009 1.15,-0.48 1.936,-1.263 2.361,-2.349 0.423,-1.086 0.636,-2.405 0.636,-3.957 l 0,-4.57 c 0,-0.733 0.027,-1.375 0.082,-1.925 0.055,-0.551 0.191,-1.107 0.41,-1.672 l -4.597,0 z" /></g><g
             inkscape:export-ydpi="90.268326"
             inkscape:export-xdpi="90.268326"
             inkscape:export-filename="/home/vencax/prg/pirati/cf.pirati.cz/images/cflogo.png"
             transform="translate(477.806,134.6866)"
             id="g144"><path
               inkscape:connector-curvature="0"
               id="path146"
               style="fill:#231f20;fill-opacity:1;fill-rule:nonzero;stroke:none"
               d="M 0,0 4.352,0 2.176,14.98 0,0 Z m 10.305,-9.395 -4.558,0 -0.779,5.374 -5.542,0 -0.78,-5.374 -4.147,0 4.599,29.623 6.608,0 4.599,-29.623 z" /></g><g
             inkscape:export-ydpi="90.268326"
             inkscape:export-xdpi="90.268326"
             inkscape:export-filename="/home/vencax/prg/pirati/cf.pirati.cz/images/cflogo.png"
             transform="translate(494.226,146.7472)"
             id="g148"><path
               inkscape:connector-curvature="0"
               id="path150"
               style="fill:#231f20;fill-opacity:1;fill-rule:nonzero;stroke:none"
               d="m 0,0 0,-21.455 -4.064,0 0,29.622 5.666,0 4.638,-17.73 0,17.73 4.023,0 0,-29.622 -4.639,0 L 0,0 Z" /></g><g
             inkscape:export-ydpi="90.268326"
             inkscape:export-xdpi="90.268326"
             inkscape:export-filename="/home/vencax/prg/pirati/cf.pirati.cz/images/cflogo.png"
             transform="translate(511.9603,135.1095)"
             id="g152"><path
               inkscape:connector-curvature="0"
               id="path154"
               style="fill:#231f20;fill-opacity:1;fill-rule:nonzero;stroke:none"
               d="m 0,0 -5.706,19.805 4.721,0 3.448,-13.499 3.449,13.499 4.31,0 L 4.516,0 4.516,-9.817 0,-9.817 0,0 Z" /></g><g
             inkscape:export-ydpi="90.268326"
             inkscape:export-xdpi="90.268326"
             inkscape:export-filename="/home/vencax/prg/pirati/cf.pirati.cz/images/cflogo.png"
             transform="translate(226.0834,106.6349)"
             id="g156"><path
               inkscape:connector-curvature="0"
               id="path158"
               style="fill:#231f20;fill-opacity:1;fill-rule:nonzero;stroke:none"
               d="M 0,0 C 0,1.326 -0.212,2.222 -0.636,2.688 -1.061,3.153 -1.628,3.386 -2.34,3.386 -3.052,3.386 -3.619,3.167 -4.043,2.729 -4.468,2.292 -4.68,1.537 -4.68,0.466 l 0,-3.174 -4.269,0 0,2.878 c 0,2.397 0.568,4.238 1.704,5.522 1.136,1.284 2.812,1.925 5.028,1.925 C 0,7.617 1.677,6.976 2.813,5.692 3.948,4.408 4.517,2.567 4.517,0.17 4.517,-1.383 4.297,-2.786 3.859,-4.041 3.421,-5.297 2.867,-6.439 2.196,-7.469 1.525,-8.499 0.801,-9.451 0.021,-10.325 c -0.78,-0.875 -1.505,-1.707 -2.175,-2.497 -0.671,-0.79 -1.226,-1.559 -1.663,-2.307 -0.439,-0.747 -0.658,-1.53 -0.658,-2.349 0,-0.282 0.014,-0.493 0.042,-0.634 l 8.538,0 0,-4.232 -13.054,0 0,3.64 c 0,1.438 0.219,2.708 0.657,3.808 0.438,1.1 0.992,2.109 1.663,3.026 0.67,0.917 1.389,1.777 2.154,2.581 0.767,0.805 1.485,1.657 2.156,2.56 0.671,0.903 1.224,1.89 1.663,2.963 C -0.219,-2.694 0,-1.438 0,0" /></g><g
             inkscape:export-ydpi="90.268326"
             inkscape:export-xdpi="90.268326"
             inkscape:export-filename="/home/vencax/prg/pirati/cf.pirati.cz/images/cflogo.png"
             transform="translate(237.5365,91.1046)"
             id="g160"><path
               inkscape:connector-curvature="0"
               id="path162"
               style="fill:#231f20;fill-opacity:1;fill-rule:nonzero;stroke:none"
               d="M 0,0 C 0,-1.073 0.212,-1.827 0.637,-2.265 1.061,-2.702 1.628,-2.92 2.34,-2.92 c 0.712,0 1.279,0.218 1.704,0.655 C 4.468,-1.827 4.68,-1.073 4.68,0 l 0,15.996 c 0,1.071 -0.212,1.826 -0.636,2.264 C 3.619,18.697 3.052,18.916 2.34,18.916 1.628,18.916 1.061,18.697 0.637,18.26 0.212,17.822 0,17.067 0,15.996 L 0,0 Z m -4.516,15.7 c 0,2.398 0.588,4.238 1.766,5.523 1.176,1.283 2.873,1.924 5.09,1.924 2.217,0 3.914,-0.641 5.091,-1.924 1.175,-1.285 1.764,-3.125 1.764,-5.523 l 0,-15.404 c 0,-2.399 -0.589,-4.239 -1.764,-5.523 -1.177,-1.284 -2.874,-1.925 -5.091,-1.925 -2.217,0 -3.914,0.641 -5.09,1.925 -1.178,1.284 -1.766,3.124 -1.766,5.523 l 0,15.404 z" /></g><g
             inkscape:export-ydpi="90.268326"
             inkscape:export-xdpi="90.268326"
             inkscape:export-filename="/home/vencax/prg/pirati/cf.pirati.cz/images/cflogo.png"
             transform="translate(251.2074,110.1896)"
             id="g164"><path
               inkscape:connector-curvature="0"
               id="path166"
               style="fill:#231f20;fill-opacity:1;fill-rule:nonzero;stroke:none"
               d="m 0,0 c 0.876,0 1.594,0.099 2.155,0.297 0.561,0.196 1.02,0.465 1.375,0.804 0.356,0.338 0.643,0.733 0.863,1.184 0.218,0.451 0.41,0.932 0.574,1.44 l 3.038,0 0,-29.623 -4.516,0 0,22.597 L 0,-3.301 0,0 Z" /></g><g
             inkscape:export-ydpi="90.268326"
             inkscape:export-xdpi="90.268326"
             inkscape:export-filename="/home/vencax/prg/pirati/cf.pirati.cz/images/cflogo.png"
             transform="translate(271.0756,98.8488)"
             id="g168"><path
               inkscape:connector-curvature="0"
               id="path170"
               style="fill:#231f20;fill-opacity:1;fill-rule:nonzero;stroke:none"
               d="M 0,0 C 0.712,0 1.279,0.218 1.704,0.655 2.128,1.093 2.34,1.848 2.34,2.92 l 0,5.332 c 0,1.071 -0.212,1.819 -0.636,2.243 C 1.279,10.918 0.712,11.13 0,11.13 -0.712,11.13 -1.279,10.918 -1.703,10.495 -2.128,10.071 -2.34,9.323 -2.34,8.252 l 0,-5.332 c 0,-1.072 0.212,-1.827 0.637,-2.265 C -1.279,0.218 -0.712,0 0,0 m 6.855,-7.194 c 0,-2.512 -0.56,-4.422 -1.682,-5.735 -1.123,-1.311 -2.86,-1.967 -5.214,-1.967 -2.217,0 -3.894,0.641 -5.028,1.925 -1.137,1.283 -1.704,3.124 -1.704,5.523 l 0,0.761 4.269,0 0,-1.057 c 0,-1.073 0.212,-1.827 0.637,-2.265 0.424,-0.437 0.991,-0.655 1.703,-0.655 0.794,0 1.409,0.254 1.848,0.762 0.437,0.507 0.656,1.465 0.656,2.877 l 0,5.417 c -0.794,-1.749 -2.19,-2.624 -4.187,-2.624 -1.67,0 -2.922,0.578 -3.757,1.735 -0.834,1.156 -1.251,2.835 -1.251,5.036 l 0,5.417 c 0,2.398 0.587,4.238 1.765,5.523 1.176,1.283 2.873,1.924 5.09,1.924 2.217,0 3.913,-0.641 5.091,-1.924 1.176,-1.285 1.764,-3.125 1.764,-5.523 l 0,-15.15 z" /></g><g
             inkscape:export-ydpi="90.268326"
             inkscape:export-xdpi="90.268326"
             inkscape:export-filename="/home/vencax/prg/pirati/cf.pirati.cz/images/cflogo.png"
             transform="translate(292.2582,84.2911)"
             id="g172"><path
               inkscape:connector-curvature="0"
               id="path174"
               style="fill:#231f20;fill-opacity:1;fill-rule:nonzero;stroke:none"
               d="m 0,0 0,27.846 -5.87,0 0,1.777 13.588,0 0,-1.777 -5.829,0 L 1.889,0 0,0 Z" /></g><g
             inkscape:export-ydpi="90.268326"
             inkscape:export-xdpi="90.268326"
             inkscape:export-filename="/home/vencax/prg/pirati/cf.pirati.cz/images/cflogo.png"
             transform="translate(311.142,119.5421)"
             id="g176"><path
               inkscape:connector-curvature="0"
               id="path178"
               style="fill:#231f20;fill-opacity:1;fill-rule:nonzero;stroke:none"
               d="m 0,0 -3.448,-4.021 -1.438,0 L -1.971,0 0,0 Z m -7.226,-26.999 8.375,0 -4.228,19.17 -4.147,-19.17 z m -0.287,-1.692 -1.436,-6.56 -1.725,0 6.281,29.665 2.75,0 6.405,-29.665 -1.889,0 -1.436,6.56 -8.95,0 z" /></g><g
             inkscape:export-ydpi="90.268326"
             inkscape:export-xdpi="90.268326"
             inkscape:export-filename="/home/vencax/prg/pirati/cf.pirati.cz/images/cflogo.png"
             transform="translate(324.9349,86.0685)"
             id="g180"><path
               inkscape:connector-curvature="0"
               id="path182"
               style="fill:#231f20;fill-opacity:1;fill-rule:nonzero;stroke:none"
               d="m 0,0 c 1.587,0 2.716,0.437 3.387,1.312 0.67,0.874 1.006,2.143 1.006,3.808 l 0,2.666 c 0,1.919 -0.425,3.266 -1.273,4.042 -0.849,0.776 -2.121,1.163 -3.818,1.163 l -3.572,0 L -4.27,0 0,0 Z m -1.067,14.769 c 0.847,0 1.58,0.07 2.196,0.211 0.616,0.141 1.129,0.388 1.539,0.741 0.411,0.352 0.712,0.832 0.903,1.439 0.192,0.607 0.287,1.375 0.287,2.307 l 0,1.904 c 0,1.551 -0.287,2.722 -0.861,3.512 -0.575,0.79 -1.629,1.185 -3.161,1.185 l -4.106,0 0,-11.299 3.203,0 z m 0.944,13.077 c 2.161,0 3.681,-0.537 4.557,-1.609 0.876,-1.072 1.313,-2.638 1.313,-4.697 l 0,-1.692 C 5.747,18.239 5.48,16.941 4.946,15.954 4.413,14.966 3.421,14.317 1.971,14.007 3.53,13.696 4.639,12.984 5.296,11.87 5.952,10.756 6.281,9.353 6.281,7.659 l 0,-2.581 C 6.281,2.934 5.788,1.255 4.803,0.042 3.817,-1.171 2.217,-1.777 0,-1.777 l -6.158,0 0,29.623 6.035,0 z" /></g><g
             inkscape:export-ydpi="90.268326"
             inkscape:export-xdpi="90.268326"
             inkscape:export-filename="/home/vencax/prg/pirati/cf.pirati.cz/images/cflogo.png"
             transform="translate(336.059,91.4005)"
             id="g184"><path
               inkscape:connector-curvature="0"
               id="path186"
               style="fill:#231f20;fill-opacity:1;fill-rule:nonzero;stroke:none"
               d="m 0,0 c 0,-1.608 0.335,-2.941 1.006,-3.999 0.67,-1.058 1.799,-1.587 3.387,-1.587 1.586,0 2.729,0.529 3.427,1.587 0.699,1.058 1.047,2.391 1.047,3.999 l 0,15.404 c 0,1.608 -0.348,2.941 -1.047,3.999 C 7.122,20.461 5.979,20.99 4.393,20.99 2.805,20.99 1.676,20.461 1.006,19.403 0.335,18.345 0,17.012 0,15.404 L 0,0 Z m -1.889,15.277 c 0,1.072 0.123,2.066 0.37,2.984 0.247,0.916 0.623,1.706 1.129,2.369 0.506,0.663 1.156,1.185 1.95,1.566 0.794,0.381 1.738,0.572 2.833,0.572 1.094,0 2.045,-0.191 2.853,-0.572 0.807,-0.381 1.471,-0.903 1.99,-1.566 0.52,-0.663 0.904,-1.453 1.15,-2.369 0.247,-0.918 0.37,-1.912 0.37,-2.984 l 0,-15.15 c 0,-1.072 -0.123,-2.067 -0.37,-2.983 C 10.14,-3.773 9.756,-4.563 9.236,-5.227 8.717,-5.89 8.053,-6.411 7.246,-6.792 6.438,-7.173 5.487,-7.363 4.393,-7.363 c -1.095,0 -2.039,0.19 -2.833,0.571 -0.794,0.381 -1.444,0.902 -1.95,1.565 -0.506,0.664 -0.882,1.454 -1.129,2.371 -0.247,0.916 -0.37,1.911 -0.37,2.983 l 0,15.15 z" /></g><g
             inkscape:export-ydpi="90.268326"
             inkscape:export-xdpi="90.268326"
             inkscape:export-filename="/home/vencax/prg/pirati/cf.pirati.cz/images/cflogo.png"
             transform="translate(354.8607,99.3136)"
             id="g188"><path
               inkscape:connector-curvature="0"
               id="path190"
               style="fill:#231f20;fill-opacity:1;fill-rule:nonzero;stroke:none"
               d="m 0,0 c 0.848,0 1.601,0.07 2.258,0.212 0.656,0.141 1.211,0.394 1.662,0.762 0.452,0.366 0.801,0.874 1.047,1.523 0.247,0.649 0.37,1.467 0.37,2.455 l 0,2.793 c 0,1.608 -0.329,2.857 -0.985,3.745 -0.658,0.889 -1.766,1.333 -3.326,1.333 l -4.064,0 L -3.038,0 0,0 Z m 1.067,14.601 c 2.19,0 3.763,-0.593 4.721,-1.778 0.958,-1.185 1.437,-2.822 1.437,-4.909 l 0,-2.581 c 0,-3.442 -1.382,-5.488 -4.146,-6.137 1.478,-0.339 2.538,-1.03 3.181,-2.073 0.643,-1.044 0.965,-2.37 0.965,-3.978 l 0,-4.613 c 0,-0.621 0.041,-1.248 0.123,-1.883 0.083,-0.634 0.273,-1.192 0.575,-1.671 l -1.971,0 c -0.246,0.451 -0.41,0.952 -0.492,1.501 -0.082,0.551 -0.123,1.235 -0.123,2.053 l 0,4.656 c 0,0.987 -0.123,1.804 -0.37,2.454 -0.246,0.648 -0.61,1.164 -1.088,1.545 -0.479,0.38 -1.047,0.648 -1.703,0.803 -0.657,0.156 -1.396,0.233 -2.217,0.233 l -2.997,0 0,-13.245 -1.889,0 0,29.623 5.994,0 z" /></g><path
             inkscape:export-ydpi="90.268326"
             inkscape:export-xdpi="90.268326"
             inkscape:export-filename="/home/vencax/prg/pirati/cf.pirati.cz/images/cflogo.png"
             inkscape:connector-curvature="0"
             id="path192"
             style="fill:#231f20;fill-opacity:1;fill-rule:nonzero;stroke:none"
             d="m 190.648,82.169 -1.209,0 0,117.712 1.209,0 0,-117.712 z" /><g
             inkscape:export-ydpi="90.268326"
             inkscape:export-xdpi="90.268326"
             inkscape:export-filename="/home/vencax/prg/pirati/cf.pirati.cz/images/cflogo.png"
             transform="translate(133.8891,119.3116)"
             id="g194"><path
               inkscape:connector-curvature="0"
               id="path196"
               style="fill:#231f20;fill-opacity:1;fill-rule:nonzero;stroke:none"
               d="m 0,0 0,-15.629 c 1.271,0.593 3.244,2.062 4.14,2.854 1.144,1.011 1.999,2.67 2.134,4.906 C 6.531,-3.656 3.818,-0.705 0,0" /></g><g
             inkscape:export-ydpi="90.268326"
             inkscape:export-xdpi="90.268326"
             inkscape:export-filename="/home/vencax/prg/pirati/cf.pirati.cz/images/cflogo.png"
             transform="translate(151.9887,106.2814)"
             id="g198"><path
               inkscape:connector-curvature="0"
               id="path200"
               style="fill:#231f20;fill-opacity:1;fill-rule:nonzero;stroke:none"
               d="m 0,0 c -3.206,-2.365 -8.01,-2.888 -11.864,-3.656 -2.688,-0.535 -5.023,-1.17 -6.238,-2.778 -1.842,-2.438 -1.461,-3.806 -1.269,-7.084 -0.744,1.114 -1.343,4.328 -1.291,5.999 0.043,1.405 0.523,2 0.663,3.001 l 0.015,17.911 -1.867,-0.139 c 0.27,0.604 1.15,0.77 1.819,1.011 0.281,0.445 0.136,2.833 0.15,3.403 l 1.684,-0.017 0.12,-2.895 C -11.165,15.999 -1.195,15.948 1.563,8.438 2.653,5.471 2.574,1.899 0,0 m 15.172,3.103 c 0,14.464 -11.768,26.232 -26.233,26.232 -14.463,0 -26.231,-11.768 -26.231,-26.232 0,-14.464 11.768,-26.232 26.231,-26.232 3.023,0 5.982,0.509 8.801,1.514 l 9.964,-3.381 -1.135,8.674 c 5.471,4.969 8.603,12.03 8.603,19.425" /></g><g
             inkscape:export-ydpi="90.268326"
             inkscape:export-xdpi="90.268326"
             inkscape:export-filename="/home/vencax/prg/pirati/cf.pirati.cz/images/cflogo.png"
             transform="translate(126.0209,114.296)"
             id="g202"><path
               inkscape:connector-curvature="0"
               id="path204"
               style="fill:#231f20;fill-opacity:1;fill-rule:nonzero;stroke:none"
               d="m 0,0 c -2.79,-0.615 -5.684,-0.95 -8.655,-0.95 -4.735,0 -9.368,0.815 -13.773,2.425 l -0.685,0.251 -12.762,-4.33 1.441,11.007 -0.823,0.73 c -8.597,7.617 -13.526,18.568 -13.526,30.044 0,22.127 18.001,40.128 40.128,40.128 22.126,0 40.127,-18.001 40.127,-40.128 0,-10.64 -4.171,-20.32 -10.953,-27.509 l 4.21,-1.52 c 6.772,7.779 10.887,17.93 10.887,29.029 0,24.412 -19.86,44.272 -44.271,44.272 -24.412,0 -44.273,-19.86 -44.273,-44.272 0,-12.292 5.126,-24.036 14.102,-32.4 l -2.022,-15.446 17.693,6.004 c 4.653,-1.612 9.527,-2.43 14.5,-2.43 3.022,0 5.973,0.307 8.827,0.886 L 0,0 Z" /></g></g></g></g></g></svg>
